<svg id="Layer_1" data-name="Layer 1" xmlns="http://www.w3.org/2000/svg" viewBox="0 0 1600 731.44"><defs><style>.cls-1{fill:#0782fa;}</style></defs><title>Talq Logo</title><path d="M159.19,109.38H0V0H435.92V109.38H276.74V571.43H159.19Z"/><path d="M831.53,0H947.45V571.43H831.53Z"/><path d="M1321.2,204.89l15.52-44.9h95.51V731.44H1316.31v-200c-18.77,22.87-59.59,51.43-120,51.43-110.2,0-200-89.8-200-217.14s91.43-217.15,201.63-217.15C1264.07,148.56,1304.06,182.86,1321.2,204.89Zm-209,160.83c0,65.31,45.71,112.65,102.86,112.65,58,0,101.24-46.53,101.24-112.65S1273,253.06,1215.08,253.06C1157.94,253.06,1112.22,299.59,1112.22,365.72Z"/><path d="M661.52,531.42v40H777.44V160H681.93l-15.52,44.9c-17.14-22-57.14-56.32-123.27-56.32-110.2,0-201.63,89.8-201.63,217.15s89.8,217.14,200,217.14C601.92,582.86,642.74,554.29,661.52,531.42ZM560.28,478.37c-57.14,0-102.86-47.34-102.86-112.65,0-66.13,45.71-112.66,102.86-112.66,58,0,101.24,46.53,101.24,112.66S618.24,478.37,560.28,478.37Z"/><polygon class="cls-1" points="1321.07 0 1321.07 105.3 1484.08 105.3 1484.08 278.93 1600 278.93 1600 105.3 1600 13.61 1600 0 1321.07 0"/></svg>